<?xml version="1.0" encoding="UTF-8" standalone="no"?>
<!-- Created with Inkscape (http://www.inkscape.org/) -->

<svg xmlns:dc="http://purl.org/dc/elements/1.1/" xmlns:cc="http://creativecommons.org/ns#" xmlns:rdf="http://www.w3.org/1999/02/22-rdf-syntax-ns#" xmlns:svg="http://www.w3.org/2000/svg" xmlns="http://www.w3.org/2000/svg" xmlns:sodipodi="http://sodipodi.sourceforge.net/DTD/sodipodi-0.dtd" xmlns:inkscape="http://www.inkscape.org/namespaces/inkscape" id="svg2985" version="1.1" inkscape:version="0.48.4 r9939" width="64" height="64" sodipodi:docname="icon.svg" inkscape:export-filename="C:\Users\Chris\Dropbox\Vectors\Background\Tomato 2.png" inkscape:export-xdpi="539.00922" inkscape:export-ydpi="539.00922">
<metadata id="metadata2991">
<rdf:RDF>
<cc:Work rdf:about="">
<dc:format>image/svg+xml</dc:format>
<dc:type rdf:resource="http://purl.org/dc/dcmitype/StillImage" />
<dc:title />
</cc:Work>
</rdf:RDF>
</metadata>
<defs id="defs2989">
<clipPath clipPathUnits="userSpaceOnUse" id="clipPath3807">
<path sodipodi:nodetypes="ccccc" inkscape:connector-curvature="0" id="path3809" d="m 42.302,641.104 c 79.0304,14.8619 158.0609,16.4284 237.0913,1.572 L 291.9696,308.9761 C 218.505,297.6102 70.65971,297.3523 5.861142,309.084 z" style="fill:#8bbfda;fill-opacity:1;stroke:#000000;stroke-width:0;stroke-linecap:butt;stroke-linejoin:miter;stroke-miterlimit:4;stroke-opacity:1;stroke-dasharray:none" />
</clipPath>
<clipPath clipPathUnits="userSpaceOnUse" id="clipPath3859">
<path sodipodi:nodetypes="ccccc" inkscape:connector-curvature="0" id="path3861" d="m 42.302,641.104 c 79.0304,14.8619 158.0609,16.4284 237.0913,1.572 L 291.9696,308.9761 C 218.505,297.6102 70.65971,297.3523 5.861142,309.084 z" style="fill:#8bbfda;fill-opacity:1;stroke:#000000;stroke-width:0;stroke-linecap:butt;stroke-linejoin:miter;stroke-miterlimit:4;stroke-opacity:1;stroke-dasharray:none" />
</clipPath>
<clipPath clipPathUnits="userSpaceOnUse" id="clipPath4063">
<path sodipodi:nodetypes="ccccc" inkscape:connector-curvature="0" id="path4065" d="m 42.302,641.104 c 79.0304,14.8619 158.0609,16.4284 237.0913,1.572 L 291.9696,308.9761 C 218.505,297.6102 70.65971,297.3523 5.861142,309.084 z" style="fill:#8bbfda;fill-opacity:1;stroke:#000000;stroke-width:0;stroke-linecap:butt;stroke-linejoin:miter;stroke-miterlimit:4;stroke-opacity:1;stroke-dasharray:none" />
</clipPath>
<clipPath clipPathUnits="userSpaceOnUse" id="clipPath4111">
<path clip-path="url(#clipPath3859)" sodipodi:nodetypes="ccc" inkscape:connector-curvature="0" id="path4113" d="M 2.47434,306.8844 C 11.23955,322.0662 290.2015,321.9278 296.4929,306.1 259.616,270.3823 43.15154,267.7521 2.47434,306.8844 z" style="fill:#3367ab;fill-opacity:1;stroke:#000000;stroke-width:0;stroke-linecap:butt;stroke-linejoin:miter;stroke-miterlimit:4;stroke-opacity:1;stroke-dasharray:none;display:inline" />
</clipPath>
</defs>
<sodipodi:namedview pagecolor="#ffffff" bordercolor="#666666" borderopacity="1" objecttolerance="10" gridtolerance="10" guidetolerance="10" inkscape:pageopacity="0" inkscape:pageshadow="2" inkscape:window-width="1366" inkscape:window-height="745" id="namedview2987" showgrid="false" inkscape:zoom="2.828427" inkscape:cx="81.9519" inkscape:cy="82.91004" inkscape:window-x="0" inkscape:window-y="0" inkscape:window-maximized="1" inkscape:current-layer="layer2" fit-margin-top="0" fit-margin-left="0" fit-margin-right="0" fit-margin-bottom="0" />
<g inkscape:groupmode="layer" id="layer2" inkscape:label="Can" style="display:inline" transform="translate(-24.04163,-646.8873)">
<g id="g3002" transform="matrix(0.3180009,0,0,0.3180009,-36.39589,501.4642)">
<path sodipodi:nodetypes="sssssss" inkscape:connector-curvature="0" id="path3863" d="m 381.3613,566.1847 c 0,38.2457 -39.387,69.25 -90.7223,69.25 -50.4514,0 -90.6339,-31.8882 -90.6339,-70.1339 0,-24.0489 9.4088,-43.7907 28.2814,-56.5252 14.8867,-10.045 35.6619,-9.5429 62.3525,-9.5429 27.1506,0 48.1279,-0.6187 63.0383,9.5552 18.524,12.6396 27.684,32.3874 27.684,57.3968 z" style="fill:#b12324;fill-opacity:1;stroke:#afe9e8;stroke-width:0;stroke-linecap:butt;stroke-linejoin:miter;stroke-miterlimit:4;stroke-opacity:1;display:inline" />
<path sodipodi:nodetypes="scscscscscscscscs" inkscape:connector-curvature="0" id="path3925" d="m 285.742,542.7818 c 4.3994,0 13.8971,-18.4495 15.3448,-21.7372 2.6875,2.3839 22.4215,17.2167 24.9407,15.1617 2.7358,-2.2315 -3.5223,-14.3481 -7.7782,-18.4731 4.623,-1.0551 21.2951,-2.7198 21.2953,-6.1417 4e-4,-4.6317 -14.1071,-7.9999 -26.0638,-11.37 3.2769,-3.1345 13.9802,-11.4121 11.2164,-14.0215 -4.0824,-3.8545 -24.47,1.1458 -31.8153,7.5799 -7.3606,-6.8164 -23.8458,-15.2992 -29.124,-12.9489 -3.4476,1.5352 4.9428,9.0581 8.7946,14.4073 -6.9788,-2.4253 -27.1901,-5.0833 -29.0387,-2.6378 -1.726,2.2835 9.9098,8.1731 14.8909,11.6945 -8.3846,2.1904 -20.7214,6.8553 -20.2106,10.1981 0.579,3.7898 20.3987,1.9653 25.5196,1.8259 -3.9954,5.2475 -9.9085,15.2651 -7.0282,18.1455 1.948,1.948 21.5549,-8.7598 25.3505,-11.4021 -0.1361,4.0421 0.065,19.7194 3.706,19.7194 z" style="fill:#2e5833;fill-opacity:1;stroke:#000000;stroke-width:0;stroke-linecap:butt;stroke-linejoin:miter;stroke-miterlimit:4;stroke-opacity:1;stroke-dasharray:none;display:inline" />
</g>
</g>
</svg>
